<svg width="1477" height="234" viewBox="0 0 1477 234" fill="none" xmlns="http://www.w3.org/2000/svg">
    <g clip-path="url(#clip0_1529_70)">
    <path d="M117.85 0C102.77 0 88.19 2.83 74.1 8.49C60.01 14.14 47.41 22.03 36.31 32.15C25.41 42.27 16.62 54.27 9.97 68.15C3.32 82.04 0 97.22 0 113.68C0 131.93 2.89 148.41 8.62 163.08C14.38 177.76 22.51 190.37 33.04 200.87C43.55 211.39 56.05 219.47 70.54 225.13C85 230.78 101.07 233.61 118.74 233.61C123.91 233.61 129.64 233.2 135.99 232.42C142.34 231.62 148.7 230.43 155.05 228.85C161.19 227.46 166.94 225.77 172.3 223.78C177.66 221.8 179.64 221.04 193.73 214.97V166.64C190.76 182.32 184.5 191.67 174.98 201.88C165.44 212.1 140.46 220.8 124.39 220.8C111.29 220.8 98.95 218.23 87.33 213.06C75.73 207.91 65.66 200.67 57.13 191.34C48.6 181.81 41.86 170.4 36.89 157.12C31.92 143.83 29.45 129.05 29.45 112.78C29.45 98.1 31.72 84.66 36.3 72.45C40.87 60.25 47.1 49.79 55.06 41.06C63.19 32.33 72.71 25.54 83.61 20.68C94.53 15.82 106.42 13.39 119.33 13.39C137.38 13.39 157.51 16.94 167.84 25.17C178.15 33.4 190.76 47.22 193.73 65.47V16.67C173.93 12.01 167.59 8.68 155.18 5.21C142.79 1.74 130.32 0 117.84 0L117.85 0Z" fill="white"/>
    <path d="M650.84 39.5891C640.31 29.2691 627.43 20.9891 612.15 14.7391C596.87 8.49914 579.42 5.36914 559.77 5.36914C552.82 5.56914 545.42 5.66914 537.61 5.66914H491.03C483.49 5.66914 476.74 5.56914 470.78 5.36914H469.45C475.8 5.36914 481.2 8.49914 484.67 10.0991C489.09 12.1391 490.17 13.3991 494.75 19.3891C496.37 21.4991 497.91 25.4991 498.6 28.8791C499.29 32.2491 499.65 36.6191 499.65 41.9691V189.879C499.65 195.839 499.35 200.589 498.76 204.169C498.17 207.739 496.51 210.229 494.88 212.499C491.63 217.029 492.46 216.799 489.46 219.289C482.92 224.709 477.13 228.569 470.78 228.569C476.34 228.569 482.89 228.519 490.43 228.409C497.97 228.319 505.61 228.259 513.34 228.259C521.07 228.259 528.95 228.319 536.39 228.409C543.83 228.519 550.44 228.569 556.18 228.569C577.61 228.569 596.31 225.389 612.28 219.039C628.25 212.699 641.51 204.259 652.01 193.739C662.52 183.429 670.35 171.529 675.52 158.029C680.68 144.549 683.26 130.749 683.26 116.659C683.26 102.569 680.49 88.5391 674.93 75.1491C669.37 61.7591 661.34 49.9091 650.83 39.5891H650.84ZM648.76 154.309C645.18 166.309 639.62 176.879 632.08 185.999C624.54 195.129 614.92 202.369 603.23 207.729C591.52 213.079 577.53 215.759 561.26 215.759C553.72 215.759 547.67 215.559 543.11 215.169C538.54 214.769 535.08 213.689 532.68 211.899C530.11 210.119 528.47 207.539 527.77 204.159C527.08 200.789 526.74 196.129 526.74 190.169V19.0491C528.13 19.0491 529.61 19.0091 531.19 18.8991C532.77 18.7991 534.57 18.7491 536.55 18.7491C538.73 18.5591 541.1 18.4091 543.7 18.2991C546.27 18.1991 549.36 18.1491 552.92 18.1491C584.26 18.1491 608.96 26.7791 627.02 44.0391C645.07 61.3091 654.09 85.3091 654.09 116.059C654.09 129.559 652.31 142.299 648.75 154.299L648.76 154.309Z" fill="white"/>
    <path d="M855.59 208.91C851.52 211.21 847.22 213.53 841.76 214.42C836.3 215.31 829.61 215.76 821.68 215.76C810.56 215.76 801.5 215.51 794.45 215.02C787.41 214.52 781.98 213.29 778.22 211.3C774.24 209.32 771.57 206.45 770.18 202.69C768.8 198.92 768.11 193.78 768.11 187.24V43.7195C768.11 37.5795 768.45 32.7295 769.14 29.1595C769.83 25.5995 771.71 23.3695 773.16 21.1395C775.39 17.6895 779.34 14.2395 782.36 11.9095C786.1 9.01953 790.83 4.97953 796.98 4.76953C792.8 5.16953 786.75 5.40953 778.81 5.50953C770.87 5.60953 762.54 5.65953 753.82 5.65953C745.1 5.65953 737.2 5.60953 729.56 5.50953C721.92 5.40953 716.32 5.75953 712.74 5.35953C713.48 5.35953 724.43 7.73953 730.02 12.9195C732.81 15.5095 733.53 17.3795 735.98 20.5395C737.69 22.7495 739.28 25.2995 740 28.8695C740.69 32.4395 741.03 37.3095 741.03 43.4495V187.19C741.03 193.94 740.69 199.29 740 203.26C739.29 207.23 739.31 211.1 737.33 213.28C735.33 215.47 733.58 218.97 730.36 221.1C721.86 226.71 718.7 228.56 712.74 228.56C722.48 228.36 734.37 228.16 748.46 227.96C762.55 227.77 777.13 227.66 792.21 227.66C807.29 227.66 821.87 227.77 835.96 227.96C850.03 228.17 874.65 228.37 884.17 228.56V176.78C881.99 185.11 872.18 195.02 869.11 198.74C865.49 203.12 859.43 206.74 855.6 208.91H855.59Z" fill="white"/>
    <path d="M951.7 28.8595C952.29 25.2995 953.73 22.7495 955.58 20.8395C957.58 18.7695 959.34 16.4895 962.32 14.1195C965.63 11.4895 972.93 4.96953 979.08 4.76953C975.1 4.96953 969.21 5.11953 961.37 5.21953C953.53 5.31953 945.24 5.36953 936.51 5.36953H912.11C904.37 5.36953 898.71 5.16953 895.15 4.77953C901.11 4.97953 904.24 6.47953 912.69 13.0495C915.68 15.3795 916.78 16.1695 919.4 19.9895C920.99 22.3095 921.98 25.0095 922.68 28.5895C923.37 32.1595 923.73 37.0195 923.73 43.1695V187.8C923.73 194.15 923.31 199.26 922.54 203.13C921.73 207 921.33 209.89 919.66 213.13C918.31 215.75 914.57 218.55 910.99 221.63C908.06 224.15 900.91 228.88 895.16 228.88C898.92 228.68 904.74 228.58 912.57 228.58H937.11C945.64 228.58 953.79 228.63 961.53 228.73C969.26 228.83 975.1 228.88 979.08 228.88C973.12 228.88 964.52 224.86 960.62 221.8C957.65 219.48 956.52 217.15 954.5 214.66C952.65 212.38 952.55 207.01 951.85 203.14C951.16 199.28 950.8 194.19 950.8 187.84V43.4095C950.8 37.2795 951.1 32.4295 951.69 28.8595H951.7Z" fill="white"/>
    <path d="M1200.49 5.35977C1192.75 5.35977 1185.31 5.30977 1178.17 5.20977C1171.03 5.10977 1165.59 4.95977 1161.81 4.75977C1168.16 4.95977 1174.14 8.75977 1177.13 11.3298C1181 14.6598 1182.8 17.2698 1185.91 21.4198C1187.69 23.7898 1189.53 26.2298 1190.22 29.8998C1190.91 33.5798 1191.27 38.3798 1191.27 44.3398V169.49C1191.27 175.56 1183.67 178.3 1179.8 173.62L1040.39 5.06977C1038.21 5.26977 1034.83 5.41977 1030.28 5.51977C1025.71 5.61977 1020.86 5.66977 1015.7 5.66977H1000.82C992.15 5.66977 993.79 5.70977 990.12 5.70977V5.82977C1004.19 5.82977 1015.92 12.3698 1020.33 17.5098C1024.83 22.7598 1028.51 33.3398 1028.51 44.6498V188.09C1028.51 194.84 1028.02 200.14 1027.01 204.01C1026.02 207.88 1024.24 210.91 1021.67 213.08C1019.28 215.11 1016.04 218.55 1011.79 221.44C1008.22 223.87 1002.02 229.15 995.47 229.15C1000.24 228.95 1006.14 228.8 1013.18 228.7C1020.22 228.6 1027.51 228.55 1035.06 228.55C1042.61 228.55 1049.88 228.6 1056.93 228.7C1063.98 228.8 1069.97 228.85 1074.94 228.85C1068.79 228.85 1064.82 225.59 1059.97 221.94C1056.93 219.64 1053.37 216.53 1051.39 214.29C1049.19 212.31 1047.81 208.11 1047.12 204.14C1046.41 200.17 1046.07 194.72 1046.07 187.77V64.7498C1046.07 58.6398 1053.75 55.9298 1057.59 60.6798L1195.77 231.81H1209.44V44.3398C1209.44 37.9998 1209.7 32.9298 1210.19 29.1598C1210.69 25.3898 1211.65 21.8598 1213.06 19.5998C1214.76 16.8798 1216.95 14.4198 1219.86 11.7798C1223.49 8.48977 1231.86 4.75977 1238.61 4.75977C1235.05 4.95977 1229.73 5.10977 1222.7 5.20977C1215.65 5.30977 1208.25 5.35977 1200.52 5.35977H1200.49Z" fill="white"/>
    <path d="M1458.2 139.87C1462.28 135.28 1469.33 130.06 1476.67 130.06C1472.1 130.26 1466.44 130.41 1459.71 130.51C1452.96 130.61 1445.92 130.66 1438.58 130.66C1431.24 130.66 1424.03 130.61 1416.99 130.51C1409.94 130.41 1403.95 130.26 1399 130.06C1409.51 130.06 1417.91 137.68 1422.42 143.14C1425.5 146.86 1427.55 152.97 1427.55 162.49V208.32C1426.37 209.32 1424.62 210.51 1422.35 211.89C1420.08 213.29 1417.15 214.67 1413.57 216.06C1410.01 217.26 1405.73 218.35 1400.79 219.33C1395.82 220.33 1389.96 220.81 1383.22 220.81C1368.36 220.81 1355.2 217.89 1343.8 212.03C1332.38 206.18 1322.71 198.4 1314.77 188.67C1306.83 178.95 1300.84 167.79 1296.78 155.19C1292.7 142.59 1290.67 129.45 1290.67 115.76C1290.67 103.07 1292.65 90.6102 1296.63 78.4102C1300.61 66.2102 1306.35 55.2502 1313.88 45.5202C1321.62 36.0002 1331.1 28.2702 1342.31 22.3102C1353.51 16.3602 1366.36 13.3902 1380.84 13.3902C1398.71 13.3902 1412.7 18.4802 1424.89 25.4402C1435.42 31.4602 1443.92 40.3902 1460.31 64.8702L1460.13 16.9602C1418.06 5.42023 1428.51 8.18023 1416.1 4.91023C1403.71 1.64023 1390.45 -0.00976562 1376.38 -0.00976562C1360.29 -0.00976562 1345.21 3.02023 1331.14 9.07023C1317.05 15.1302 1304.84 23.4102 1294.53 33.9102C1284 44.4302 1275.77 56.8802 1269.83 71.2602C1263.87 85.6502 1260.89 101.17 1260.89 117.83C1260.89 134.49 1263.78 148.69 1269.54 162.77C1275.28 176.86 1283.41 189.16 1293.94 199.68C1304.25 210.2 1316.75 218.48 1331.44 224.52C1346.12 230.57 1362.29 233.6 1379.94 233.6C1393.63 233.6 1406.77 232.06 1419.38 228.99C1431.96 225.91 1440.52 221.3 1454.63 215.15L1454.8 207.12L1454.64 202.06V162.47C1454.64 152.95 1455.28 143.13 1458.2 139.85V139.87Z" fill="white"/>
    <path d="M333.66 0C272.49 0 222.91 52.29 222.91 116.8C222.91 181.31 272.49 233.6 333.66 233.6C394.83 233.6 444.41 181.31 444.41 116.8C444.41 52.29 394.83 0 333.66 0ZM333.66 221.06C289.39 221.06 253.49 174.53 253.49 117.14C253.49 59.75 289.39 13.22 333.66 13.22C377.93 13.22 413.83 59.75 413.83 117.14C413.83 174.53 377.94 221.06 333.66 221.06Z" fill="white"/>
    </g>
    <defs>
    <clipPath id="clip0_1529_70">
    <rect width="1476.67" height="233.62" fill="white"/>
    </clipPath>
    </defs>
</svg>
