<svg width="667" height="541" viewBox="0 0 667 541" fill="none" xmlns="http://www.w3.org/2000/svg">
<path d="M246.321 537.547C223.845 542.53 201.928 539.108 198.103 538.344C96.2949 517.347 41.892 404.403 34.7337 390.087C2.75868 322.32 0.848461 261.234 0.530762 236.099C0.848461 140.653 38.3892 84.3436 42.8451 78.2952C71.4782 31.5291 124.61 2.57824 167.56 0.668021C176.428 0.273913 184.615 0.748451 192.136 1.80611H192.14C221.026 5.87587 239.983 18.5879 249.325 23.8922C284.96 42.3429 307.227 82.9079 313.115 93.7257C319.002 104.544 332.044 105.658 332.044 105.658H335.08C335.08 105.658 348.122 104.544 354.009 93.7257C359.897 82.9079 382.164 42.3429 417.798 23.8922C427.104 18.612 445.953 5.97239 474.659 1.85034C482.267 0.760516 490.568 0.26587 499.564 0.664C542.513 2.57422 595.646 31.5251 624.279 78.2912C628.735 84.3355 666.275 140.649 666.593 236.095C666.275 261.23 664.365 322.312 632.394 390.083C625.236 404.399 570.833 517.343 469.024 538.34C465.184 539.112 443.074 542.562 420.489 537.479C415.032 536.249 409.546 534.519 404.282 532.139C391.417 526.311 379.57 518.224 369.625 508.182C364.606 503.115 360.082 497.562 356.153 491.614C352.61 486.253 350.728 479.252 345.661 475.029C344.39 474.313 341.603 470.179 334.051 470.497H333.081C325.525 470.179 322.742 474.313 321.471 475.029C316.279 479.356 314.309 486.623 310.79 492.189C307.014 498.169 302.486 503.654 297.459 508.625C287.498 518.473 275.598 526.364 262.85 532.139C257.501 534.559 251.923 536.305 246.374 537.539C246.354 537.539 246.341 537.547 246.321 537.547Z" fill="white"/>
<path d="M333.343 70.3514C333.484 70.3474 333.653 70.3434 333.83 70.3434C338.511 70.8219 344.185 66.527 348.315 63.0283C361.679 50.3002 386.174 33.1203 396.674 27.3937C438.035 4.48715 474.647 1.80078 474.647 1.80078L474.655 1.85306C445.949 5.97511 427.1 18.6107 417.795 23.8949C382.164 42.3456 359.893 82.9106 354.005 93.7285C348.118 104.546 335.076 105.66 335.076 105.66H332.04C332.04 105.66 318.998 104.546 313.111 93.7285C307.223 82.9106 284.956 42.3456 249.322 23.8949C239.984 18.5906 221.026 5.87859 192.136 1.80882C194.323 1.98979 229.934 5.20298 270 27.3937C280.5 33.1203 304.995 50.3002 318.359 63.0283C322.497 66.527 328.167 70.8219 332.848 70.3434C333.025 70.3434 333.194 70.3474 333.339 70.3514H333.343Z" fill="#A1D82D"/>
<path d="M333.339 493.869C333.09 493.873 332.756 493.881 332.398 493.881C325.895 493.346 319.634 500.323 316.771 503.03C303.25 514.801 291.958 520.371 289.887 521.802C268.384 533.231 248.481 537.148 246.37 537.538C251.916 536.308 257.498 534.563 262.846 532.138C275.594 526.363 287.49 518.473 297.455 508.624C302.478 503.653 307.01 498.168 310.787 492.188C314.305 486.618 316.276 479.355 321.468 475.028C322.739 474.312 325.525 470.178 333.078 470.496H334.047C341.603 470.178 344.386 474.312 345.657 475.028C350.724 479.251 352.606 486.252 356.149 491.613C360.078 497.561 364.606 503.114 369.621 508.181C379.562 518.223 391.414 526.31 404.279 532.138C409.543 534.522 415.028 536.248 420.485 537.478L420.465 537.563C419.516 537.394 399.006 533.605 376.792 521.798C374.725 520.367 363.428 514.797 349.908 503.026C347.045 500.323 340.779 493.342 334.28 493.877C333.922 493.877 333.593 493.869 333.339 493.865V493.869Z" fill="#A1D82D"/>
<path d="M334.047 470.496H334.272" stroke="#242424" stroke-width="2.64" stroke-miterlimit="10"/>
<path d="M335.526 243.388C329.936 245.859 323.705 247.928 316.73 249.389C311.992 250.009 308.183 251.889 305.797 256.281L305.417 257.561L305.037 258.842C304.678 263.725 306.939 267.072 310.704 269.746C339.212 293.75 339.192 323.504 337.35 337.066C341.575 312.757 336.225 288.724 323.596 268.389L323.667 268.469C323.667 268.469 321.698 265.111 322.697 261.736C323.696 258.359 327.259 256.338 327.259 256.338L326.979 256.438C331.895 253.804 336.545 250.797 341.001 247.545C345.458 250.797 350.108 253.804 355.024 256.438L354.744 256.335C354.744 256.335 358.307 258.356 359.306 261.734C360.305 265.111 358.333 268.466 358.333 268.466L358.404 268.386C345.775 288.721 340.425 312.754 344.65 337.064C342.806 323.501 342.789 293.745 371.296 269.743C375.059 267.069 377.322 263.722 376.963 258.839L376.583 257.559L376.203 256.278C373.82 251.883 370.008 250.006 365.272 249.386C358.298 247.925 352.064 245.857 346.477 243.385C359.657 232.514 370.277 218.886 377 203.066C372.558 212.554 362.124 229.537 341.001 240.73C319.879 229.537 309.448 212.554 305.003 203.066C311.726 218.886 322.346 232.514 335.526 243.385V243.388Z" fill="#242424"/>
</svg>
