<svg xmlns="http://www.w3.org/2000/svg" width="35" height="35" viewBox="0 0 47 47" fill="none">
  <path d="M41.0526 7.83328H33.2349M41.0526 7.83328C41.0526 8.92995 38.1327 10.9803 37.1437 11.7499M41.0526 7.83328C41.0526 6.73661 38.1327 4.68624 37.1437 3.91661M5.87109 7.83328H13.6888M5.87109 7.83328C5.87109 6.73661 8.79293 4.68624 9.78188 3.91661M5.87109 7.83328C5.87109 8.92995 8.79293 10.9803 9.78188 11.7499M19.2191 43.0833V41.2424C19.2194 39.9731 18.8085 38.7377 18.048 37.7214L10.5613 27.7162C9.93855 26.8859 9.47639 25.8774 9.76034 24.8786C10.4653 22.4131 13.2521 20.2217 16.3678 24.0816L19.5011 27.4264V7.0382C19.693 3.45445 25.7149 2.32449 26.3376 7.0382V18.657C29.2418 18.2849 42.9169 20.3235 40.9272 28.9676L40.6452 30.2131C40.2398 32.0109 39.0472 35.2108 37.7332 37.0829C36.3643 39.0315 37.0047 42.1746 36.848 43.0872" stroke="white" stroke-width="2.9375" stroke-linecap="round" stroke-linejoin="round"/>
</svg>