<svg xmlns="http://www.w3.org/2000/svg" width="18" height="18" viewBox="0 0 18 18" fill="none">
  <path d="M18 13.5C18 14.0304 17.7893 14.5391 17.4142 14.9142C17.0391 15.2893 16.5304 15.5 16 15.5H2C1.46957 15.5 0.960859 15.2893 0.585786 14.9142C0.210714 14.5391 0 14.0304 0 13.5V4.5C0 3.96957 0.210714 3.46086 0.585786 3.08579C0.960859 2.71071 1.46957 2.5 2 2.5H16C16.5304 2.5 17.0391 2.71071 17.4142 3.08579C17.7893 3.46086 18 3.96957 18 4.5V13.5Z" fill="#EEEEEE"/>
  <path d="M10.7204 6.54238C10.0687 6.0861 9.26234 5.90741 8.47882 6.04563C7.6953 6.18384 6.99877 6.62763 6.54245 7.27938C6.32697 7.60557 6.24731 8.00298 6.32042 8.38702C6.39353 8.77106 6.61363 9.11141 6.93389 9.33562C7.25414 9.55983 7.64925 9.6502 8.03513 9.58749C8.421 9.52479 8.76717 9.31396 8.99995 8.99988C9.11295 8.83852 9.25663 8.70099 9.42278 8.59516C9.58893 8.48932 9.7743 8.41725 9.96831 8.38306C10.1623 8.34886 10.3612 8.35321 10.5535 8.39586C10.7458 8.43851 10.9278 8.51863 11.0892 8.63163C11.2506 8.74463 11.3881 8.88831 11.4939 9.05446C11.5998 9.22061 11.6718 9.40598 11.706 9.59999C11.7402 9.79399 11.7359 9.99283 11.6932 10.1852C11.6506 10.3775 11.5705 10.5595 11.4574 10.7209C11.6835 10.3981 11.8437 10.034 11.9289 9.64936C12.0142 9.26469 12.0229 8.86699 11.9544 8.47897C11.886 8.09096 11.7418 7.72022 11.5301 7.38793C11.3183 7.05565 11.0432 6.76833 10.7204 6.54238Z" fill="#C60C30"/>
  <path d="M11.0892 8.6323C10.7634 8.40411 10.3602 8.31468 9.96848 8.3837C9.57672 8.45271 9.22842 8.6745 9.00019 9.0003C8.76797 9.31602 8.42145 9.52836 8.03471 9.59191C7.64797 9.65546 7.25172 9.56516 6.93068 9.34034C6.60965 9.11553 6.38933 8.77402 6.31682 8.38886C6.24431 8.0037 6.32538 7.60546 6.54268 7.2793C6.31009 7.60169 6.14389 7.96709 6.05374 8.35427C5.96359 8.74146 5.95129 9.14269 6.01756 9.53467C6.08383 9.92664 6.22735 10.3015 6.43976 10.6376C6.65218 10.9736 6.92926 11.2641 7.25491 11.4921C7.58056 11.7201 7.94828 11.8811 8.3367 11.9658C8.72512 12.0504 9.12649 12.057 9.51749 11.9852C9.90849 11.9134 10.2813 11.7646 10.6143 11.5475C10.9473 11.3303 11.2338 11.0491 11.4572 10.7203C11.5702 10.5591 11.6504 10.3771 11.693 10.1849C11.7357 9.99269 11.7401 9.79395 11.7059 9.60003C11.6717 9.40612 11.5997 9.22084 11.4939 9.05479C11.388 8.88874 11.2505 8.74517 11.0892 8.6323Z" fill="#003478"/>
  <path d="M12.1675 12.7865L13.1315 11.6375L13.5145 11.959L12.5505 13.108L12.1675 12.7865ZM13.4525 11.255L14.4165 10.1065L14.7995 10.428L13.8355 11.5765L13.4525 11.255ZM12.9335 13.4305L13.8975 12.282L14.2805 12.6035L13.3165 13.752L12.9335 13.4305ZM14.2195 11.8975L15.1845 10.749L15.5675 11.071L14.6025 12.219L14.2195 11.8975ZM13.699 14.0735L14.664 12.925L15.0465 13.2465L14.082 14.395L13.699 14.0735ZM14.9845 12.541L15.948 11.391L16.3315 11.7125L15.368 12.8625L14.9845 12.541ZM14.9865 5.45997L15.3695 5.13847L16.3345 6.28797L15.951 6.60947L14.9865 5.45997ZM13.7005 3.92697L14.0835 3.60547L15.0475 4.75497L14.664 5.07597L13.7005 3.92697ZM12.934 4.57097L13.317 4.24947L15.567 6.93047L15.184 7.25197L12.934 4.57097ZM12.168 5.21297L12.5515 4.89147L13.515 6.04047L13.132 6.36147L12.168 5.21297ZM13.453 6.74547L13.836 6.42397L14.801 7.57247L14.4185 7.89397L13.453 6.74547ZM3.20047 10.4275L3.58347 10.106L5.83297 12.7875L5.44947 13.109L3.20047 10.4275ZM2.43547 11.0705L2.81797 10.7495L3.78247 11.8985L3.39897 12.22L2.43547 11.0705ZM3.71897 12.6035L4.10197 12.282L5.06697 13.4305L4.68397 13.752L3.71897 12.6035ZM1.66847 11.713L2.05147 11.3915L4.30147 14.0725L3.91797 14.394L1.66847 11.713ZM1.66797 6.28697L3.91697 3.60597L4.30047 3.92697L2.05047 6.60847L1.66797 6.28697ZM2.43397 6.93047L4.68397 4.24897L5.06697 4.57047L2.81697 7.25147L2.43397 6.93047ZM3.20047 7.57297L5.45047 4.89147L5.83347 5.21297L3.58347 7.89447L3.20047 7.57297Z" fill="#292F33"/>
</svg>